HIERARCHY
ROOT Hips
{
 OFFSET 0.000000 0.000000 0.000000
 CHANNELS 6 Xposition Yposition Zposition Yrotation Xrotation Zrotation
 JOINT Chest
 {
  OFFSET 0.000000 9.588913 -0.003946
  CHANNELS 3 Yrotation Xrotation Zrotation
  JOINT Chest2
  {
   OFFSET 0.000000 9.541882 0.008053
   CHANNELS 3 Yrotation Xrotation Zrotation
   JOINT Chest3
   {
    OFFSET 0.000000 9.501360 0.000000
    CHANNELS 3 Yrotation Xrotation Zrotation
    JOINT Chest4
    {
     OFFSET 0.000000 9.491660 0.000000
     CHANNELS 3 Yrotation Xrotation Zrotation
     JOINT Neck
     {
      OFFSET 0.000000 14.331917 0.000000
      CHANNELS 3 Yrotation Xrotation Zrotation
      JOINT Head
      {
       OFFSET 0.000000 8.884799 0.017034
       CHANNELS 3 Yrotation Xrotation Zrotation
       End Site
       {
        OFFSET 0.000000 16.896195 0.008993
       }
      }
     }
     JOINT RightCollar
     {
      OFFSET -2.923010 9.499495 0.000000
      CHANNELS 3 Yrotation Xrotation Zrotation
      JOINT RightShoulder
      {
       OFFSET -13.795216 0.000000 0.000000
       CHANNELS 3 Yrotation Xrotation Zrotation
       JOINT RightElbow
       {
        OFFSET -30.272209 0.000000 0.000000
        CHANNELS 3 Yrotation Xrotation Zrotation
        JOINT RightWrist
        {
         OFFSET -24.478199 0.000000 0.000000
         CHANNELS 3 Yrotation Xrotation Zrotation
         End Site
         {
          OFFSET -18.090752 0.000000 0.000000
         }
        }
       }
      }
     }
     JOINT LeftCollar
     {
      OFFSET 2.923010 9.499495 0.000000
      CHANNELS 3 Yrotation Xrotation Zrotation
      JOINT LeftShoulder
      {
       OFFSET 13.795216 0.000000 0.000000
       CHANNELS 3 Yrotation Xrotation Zrotation
       JOINT LeftElbow
       {
        OFFSET 30.272209 0.000000 0.000000
        CHANNELS 3 Yrotation Xrotation Zrotation
        JOINT LeftWrist
        {
         OFFSET 24.478199 0.000000 0.000000
         CHANNELS 3 Yrotation Xrotation Zrotation
         End Site
         {
          OFFSET 18.090752 0.000000 0.000000
         }
        }
       }
      }
     }
    }
   }
  }
 }
 JOINT RightHip
 {
  OFFSET -7.826875 0.019532 0.001973
  CHANNELS 3 Yrotation Xrotation Zrotation
  JOINT RightKnee
  {
   OFFSET 0.000000 -40.546152 -0.001885
   CHANNELS 3 Yrotation Xrotation Zrotation
   JOINT RightAnkle
   {
    OFFSET 0.000000 -39.417092 -0.003189
    CHANNELS 3 Yrotation Xrotation Zrotation
    JOINT RightToe
    {
     OFFSET 0.000000 -7.579396 17.243563
     CHANNELS 3 Yrotation Xrotation Zrotation
     End Site
     {
      OFFSET 0.000000 -1.500329 6.694466
     }
    }
   }
  }
 }
 JOINT LeftHip
 {
  OFFSET 7.826875 0.019532 0.001973
  CHANNELS 3 Yrotation Xrotation Zrotation
  JOINT LeftKnee
  {
   OFFSET 0.000000 -40.546152 -0.001885
   CHANNELS 3 Yrotation Xrotation Zrotation
   JOINT LeftAnkle
   {
    OFFSET 0.000000 -39.417092 -0.003189
    CHANNELS 3 Yrotation Xrotation Zrotation
    JOINT LeftToe
    {
     OFFSET 0.000000 -7.579396 17.243563
     CHANNELS 3 Yrotation Xrotation Zrotation
     End Site
     {
      OFFSET 0.000000 -1.500329 6.694466
     }
    }
   }
  }
 }
}
MOTION
Frames: 9
Frame Time: 0.008333
-0.777335 84.349270 31.442818 40.235027 4.193066 26.396857 5.120088 8.560846 3.993436 2.843586 4.944568 2.258855 3.588233 6.162397 2.864525 2.843588 4.944572 2.258858 27.875407 22.172658 -9.843695 38.618007 4.264682 -19.102061 11.096239 -2.191125 -11.561035 16.846559 -57.185502 48.787371 116.112474 -25.908952 13.504837 -6.238692 -11.169509 -14.301797 -21.857920 -6.273288 4.416229 -1.925239 -37.711487 -103.442440 -57.927109 12.244937 -23.752691 -16.686597 1.507408 14.654639 7.836745 -37.141901 -34.349124 11.602247 53.751827 7.055541 2.176852 -19.805470 3.571449 -0.228845 -0.162213 0.010819 1.789128 -13.678997 3.670358 -9.656804 8.355890 0.668422 -19.906502 37.783549 -22.223258 4.607426 -36.408021 -17.624218
-0.705028 84.360708 31.376744 40.413987 4.240623 26.430833 5.047139 8.550920 4.039974 2.802279 4.935791 2.287961 3.536876 6.151465 2.900307 2.802280 4.935795 2.287964 27.831303 22.189685 -9.878587 38.561137 4.281339 -19.134382 11.097273 -2.070698 -11.742568 17.050480 -58.118177 48.746212 117.855595 -25.037328 12.902802 -6.726305 -11.253241 -14.023060 -21.915296 -6.238332 4.299124 -1.591449 -37.257892 -103.447208 -59.542281 12.184192 -24.680335 -16.703115 1.651392 14.535391 7.913084 -37.116295 -34.452694 11.468201 53.707930 6.858693 2.091863 -19.807843 3.730083 -0.242036 -0.129594 0.019688 1.943296 -13.817754 3.559106 -9.620044 8.496732 0.638495 -19.798773 37.607537 -22.168196 4.538100 -36.203713 -17.480549
-0.623175 84.371536 31.306462 40.591374 4.283919 26.433051 4.970192 8.529664 4.090135 2.756175 4.922393 2.313945 3.479439 6.134820 2.932080 2.756175 4.922397 2.313947 27.773486 22.196610 -9.915285 38.484035 4.279467 -19.166318 11.091313 -1.921288 -11.911904 16.971609 -59.098941 49.057569 119.461855 -24.207373 12.406842 -7.024924 -11.282892 -13.890556 -21.981991 -6.187511 4.174843 -1.391309 -36.887164 -103.417314 -60.875567 12.109164 -25.363386 -16.799150 1.767493 14.433673 7.961153 -37.080672 -34.521743 11.309610 53.651297 6.654215 2.002739 -19.810072 3.888792 -0.239917 -0.098504 0.028336 2.155281 -13.974836 3.470590 -9.563381 8.695746 0.601961 -19.705825 37.400059 -22.136536 4.454012 -35.968770 -17.291591
-0.532426 84.381557 31.233220 40.754509 4.328074 26.405616 4.893352 8.499733 4.131534 2.707794 4.906399 2.332390 3.419034 6.115010 2.954373 2.707794 4.906403 2.332392 27.712286 22.181971 -9.943778 38.399732 4.244403 -19.188601 11.081875 -1.737223 -12.061435 16.635058 -60.084614 49.679459 120.944356 -23.394847 11.937817 -7.188782 -11.316728 -13.886518 -22.050948 -6.134154 4.054517 -1.400273 -36.613436 -103.298426 -61.876072 12.008930 -25.743893 -16.997658 1.853105 14.388126 8.002998 -37.031977 -34.565175 11.176608 53.577863 6.485690 1.888611 -19.811436 4.045171 -0.225437 -0.068610 0.038271 2.430600 -14.149254 3.398979 -9.510385 8.956832 0.560599 -19.607378 37.161729 -22.108084 4.362563 -35.709785 -17.079586
-0.432860 84.390731 31.158710 40.897125 4.369472 26.354905 4.817693 8.469535 4.161779 2.659199 4.891078 2.342506 3.358253 6.096110 2.966251 2.659198 4.891082 2.342506 27.651897 22.140577 -9.966329 38.315996 4.171356 -19.205951 11.061349 -1.527056 -12.192138 16.134519 -61.009745 50.527804 122.302035 -22.558259 11.406610 -7.233706 -11.385035 -13.940468 -22.123190 -6.105684 3.942393 -1.578179 -36.417784 -103.132405 -62.508019 11.908404 -25.839115 -17.331470 1.902290 14.430700 8.035026 -36.969884 -34.587936 11.076828 53.489249 6.356619 1.761253 -19.816782 4.191507 -0.199965 -0.037660 0.051761 2.754524 -14.332143 3.337412 -9.481256 9.278839 0.514839 -19.475901 36.890861 -22.056977 4.269844 -35.432419 -16.869066
-0.324118 84.398919 31.085754 41.017109 4.394173 26.287091 4.737371 8.451783 4.187209 2.610279 4.879701 2.347015 3.297024 6.082186 2.971150 2.610278 4.879706 2.347016 27.590674 22.078506 -9.992112 38.233458 4.070763 -19.229483 11.026946 -1.308169 -12.315534 15.523195 -61.828957 51.574087 123.491884 -21.690241 10.794313 -7.170643 -11.464036 -14.003131 -22.198582 -6.119006 3.833860 -1.817061 -36.262704 -103.033463 -62.777767 11.868057 -25.709512 -17.834836 1.894827 14.570371 8.031461 -36.891897 -34.589282 10.980244 53.391951 6.242547 1.655410 -19.835637 4.317271 -0.163902 -0.002302 0.068596 3.100989 -14.506389 3.281676 -9.468088 9.658065 0.467835 -19.302001 36.585837 -21.965599 4.179646 -35.139815 -16.676719
-0.206754 84.405455 31.018278 41.113012 4.385539 26.199984 4.640263 8.459572 4.222105 2.558672 4.875629 2.350090 3.232471 6.077420 2.974282 2.558673 4.875635 2.350092 27.523607 22.010750 -10.033056 38.148038 3.964735 -19.272106 10.990479 -1.098409 -12.446712 14.764120 -62.528246 52.854780 124.463859 -20.843031 10.152978 -7.000628 -11.507312 -14.088340 -22.265613 -6.171159 3.708348 -2.036772 -36.136566 -103.054559 -62.706778 11.902993 -25.420229 -18.506912 1.819787 14.801625 7.965051 -36.792864 -34.560195 10.877166 53.289612 6.136025 1.569129 -19.868230 4.415578 -0.101068 0.035955 0.094997 3.439023 -14.651161 3.239837 -9.446643 10.087290 0.428642 -19.095752 36.241141 -21.841977 4.094657 -34.831557 -16.503752
-0.081574 84.411801 30.954654 41.171356 4.362227 26.112763 4.532738 8.482033 4.252674 2.499091 4.881250 2.355660 3.158050 6.084809 2.980510 2.499094 4.881261 2.355665 27.443662 21.954710 -10.103081 38.053116 3.878425 -19.348569 10.974432 -0.904465 -12.595970 13.734229 -63.124700 54.450422 125.166675 -20.105101 9.589012 -6.656909 -11.487435 -14.281436 -22.308678 -6.258055 3.549370 -2.183168 -36.040178 -103.180705 -62.315496 11.963745 -25.032290 -19.311233 1.691006 15.105368 7.878402 -36.683107 -34.525014 10.795916 53.187013 6.057673 1.531012 -19.915501 4.491337 -0.061214 0.073849 0.109965 3.774764 -14.765538 3.188213 -9.402109 10.535926 0.404354 -18.859916 35.890369 -21.696848 4.010035 -34.523201 -16.348382
0.048504 84.417187 30.897050 41.197865 4.321949 26.016038 4.401572 8.518970 4.288220 2.425524 4.896716 2.365552 3.066265 6.104569 2.992034 2.425531 4.896735 2.365561 27.339372 21.921234 -10.213924 37.934706 3.825729 -19.470135 10.998742 -0.715663 -12.758278 12.359948 -63.634273 56.372182 125.556554 -19.542764 9.193613 -6.041393 -11.429108 -14.702222 -22.320292 -6.382685 3.357072 -2.226140 -35.960647 -103.383925 -61.630058 11.992085 -24.579494 -20.185226 1.498452 15.443209 7.786447 -36.559517 -34.475530 10.769729 53.089376 6.026851 1.479774 -19.957281 4.556006 -0.022764 0.096773 0.124765 4.084994 -14.846378 3.144766 -9.343382 10.990519 0.395294 -18.593853 35.531410 -21.549743 3.928286 -34.215665 -16.204176
